<svg width="162" height="48" viewBox="0 0 162 48" fill="none" xmlns="http://www.w3.org/2000/svg">
<path d="M0 6.4C0 2.86538 2.86679 0 6.40316 0H155.597C159.133 0 162 2.86538 162 6.4V41.6C162 45.1346 159.133 48 155.597 48H6.40316C2.86679 48 0 45.1346 0 41.6V6.4Z" fill="white"/>
<path fill-rule="evenodd" clip-rule="evenodd" d="M0 41.6V6.4C0 2.86538 2.86679 0 6.40316 0H155.597C159.133 0 162 2.86538 162 6.4V41.6C162 45.1346 159.133 48 155.597 48H6.40316C2.86679 48 0 45.1346 0 41.6ZM0.960474 41.6V6.4C0.960474 3.39557 3.39725 0.96 6.40316 0.96H155.597C158.603 0.96 161.04 3.39557 161.04 6.4V41.6C161.04 44.6044 158.603 47.04 155.597 47.04H6.40316C3.39725 47.04 0.960474 44.6044 0.960474 41.6Z" fill="black" fill-opacity="0.1"/>
<path d="M37.2455 25.4963C37.2289 22.6274 38.5109 20.4652 41.0997 18.8709C39.6518 16.7676 37.4612 15.6108 34.5737 15.3879C31.8396 15.1692 28.8484 17.0032 27.7531 17.0032C26.5956 17.0032 23.9486 15.4636 21.866 15.4636C17.5678 15.5309 13 18.9382 13 25.8707C13 27.9193 13.3692 30.0352 14.1077 32.2142C15.0951 35.083 18.6548 42.1122 22.368 41.9986C24.3096 41.9524 25.6828 40.6021 28.2094 40.6021C30.6614 40.6021 31.9309 41.9986 34.0966 41.9986C37.8429 41.944 41.0624 35.5542 42 32.6769C36.9758 30.2749 37.2455 25.6435 37.2455 25.4963ZM32.8851 12.6662C34.9886 10.1339 34.7977 7.82869 34.7355 7C32.8768 7.10937 30.7278 8.283 29.5039 9.72586C28.1555 11.2739 27.3631 13.1879 27.5332 15.3458C29.5412 15.5015 31.375 14.454 32.8851 12.6662Z" fill="black"/>
<path d="M59.4255 34.4072H57.3181L56.1638 30.8154H52.1513L51.0517 34.4072H49L52.9753 22.179H55.4307L59.4255 34.4072ZM55.8158 29.3084L54.7719 26.1154C54.6614 25.7892 54.4545 25.0211 54.1492 23.8118H54.1121C53.9905 24.3319 53.7947 25.1001 53.5256 26.1154L52.5002 29.3084H55.8158Z" fill="black"/>
<path d="M69.6487 29.8902C69.6487 31.3897 69.2395 32.5751 68.4211 33.4452C67.688 34.2198 66.7777 34.6067 65.691 34.6067C64.5181 34.6067 63.6755 34.1895 63.1624 33.3552H63.1252V38H61.1469V28.4926C61.1469 27.5498 61.1218 26.5823 61.0736 25.5899H62.8135L62.9239 26.9875H62.961C63.6208 25.9345 64.622 25.4089 65.9657 25.4089C67.0161 25.4089 67.8931 25.8196 68.5946 26.642C69.298 27.4653 69.6487 28.5477 69.6487 29.8902ZM67.6332 29.9618C67.6332 29.1036 67.4384 28.3961 67.0468 27.8393C66.619 27.2585 66.0446 26.9682 65.3245 26.9682C64.8364 26.9682 64.3928 27.1299 63.9966 27.4487C63.5994 27.7703 63.3396 28.1903 63.218 28.7103C63.1568 28.9529 63.1262 29.1514 63.1262 29.3076V30.7778C63.1262 31.4191 63.3248 31.9603 63.7219 32.4023C64.1191 32.8443 64.635 33.0648 65.2697 33.0648C66.0149 33.0648 66.5949 32.78 67.0096 32.2121C67.4254 31.6433 67.6332 30.8935 67.6332 29.9618Z" fill="black"/>
<path d="M79.8909 29.8902C79.8909 31.3897 79.4816 32.5751 78.6623 33.4452C77.9301 34.2198 77.0198 34.6067 75.9332 34.6067C74.7602 34.6067 73.9177 34.1895 73.4054 33.3552H73.3683V38H71.3899V28.4926C71.3899 27.5498 71.3649 26.5823 71.3166 25.5899H73.0565L73.1669 26.9875H73.2041C73.8629 25.9345 74.8642 25.4089 76.2088 25.4089C77.2583 25.4089 78.1352 25.8196 78.8386 26.642C79.5392 27.4653 79.8909 28.5477 79.8909 29.8902ZM77.8754 29.9618C77.8754 29.1036 77.6796 28.3961 77.288 27.8393C76.8602 27.2585 76.2876 26.9682 75.5666 26.9682C75.0776 26.9682 74.635 27.1299 74.2378 27.4487C73.8406 27.7703 73.5817 28.1903 73.4602 28.7103C73.3999 28.9529 73.3683 29.1514 73.3683 29.3076V30.7778C73.3683 31.4191 73.5669 31.9603 73.9622 32.4023C74.3594 32.8434 74.8753 33.0648 75.5119 33.0648C76.257 33.0648 76.837 32.78 77.2518 32.2121C77.6675 31.6433 77.8754 30.8935 77.8754 29.9618Z" fill="black"/>
<path d="M91.3419 30.9782C91.3419 32.0183 90.9773 32.8646 90.2451 33.5179C89.4406 34.2318 88.3205 34.5884 86.8813 34.5884C85.5525 34.5884 84.4872 34.3348 83.6808 33.8266L84.1392 32.1938C85.0078 32.7139 85.9608 32.9749 86.9991 32.9749C87.7443 32.9749 88.3243 32.8076 88.7409 32.475C89.1557 32.1424 89.3626 31.6958 89.3626 31.139C89.3626 30.6428 89.1919 30.2247 88.8495 29.8856C88.5089 29.5466 87.9401 29.2314 87.1458 28.9401C84.9836 28.1417 83.9035 26.9719 83.9035 25.4338C83.9035 24.4285 84.2821 23.6043 85.0402 22.963C85.7956 22.3207 86.8033 22 88.0635 22C89.1872 22 90.1208 22.1939 90.8659 22.5807L90.3713 24.1777C89.6753 23.8028 88.8884 23.6154 88.0078 23.6154C87.3119 23.6154 86.7681 23.7853 86.3783 24.1235C86.0489 24.4258 85.8837 24.7943 85.8837 25.2307C85.8837 25.714 86.0721 26.1137 86.4507 26.428C86.7801 26.7183 87.3787 27.0326 88.2472 27.3716C89.3097 27.7952 90.0901 28.2905 90.5922 28.8584C91.0923 29.4244 91.3419 30.1328 91.3419 30.9782Z" fill="black"/>
<path d="M97.8828 27.0602H95.7021V31.3412C95.7021 32.4301 96.0862 32.974 96.8564 32.974C97.21 32.974 97.5032 32.9437 97.7352 32.8831L97.79 34.3707C97.4002 34.5149 96.8871 34.5875 96.2514 34.5875C95.4701 34.5875 94.8595 34.3514 94.4187 33.88C93.9798 33.4077 93.7589 32.6157 93.7589 31.5029V27.0584H92.4598V25.5882H93.7589V23.9738L95.7021 23.3931V25.5882H97.8828V27.0602Z" fill="black"/>
<path d="M107.722 29.926C107.722 31.2813 107.33 32.394 106.549 33.2642C105.73 34.1601 104.642 34.6067 103.286 34.6067C101.98 34.6067 100.94 34.1776 100.164 33.3193C99.388 32.4611 99.0001 31.3778 99.0001 30.0721C99.0001 28.7057 99.3991 27.5866 100.2 26.7164C100.999 25.8453 102.077 25.4098 103.433 25.4098C104.739 25.4098 105.791 25.8389 106.584 26.698C107.343 27.5314 107.722 28.6074 107.722 29.926ZM105.669 29.9894C105.669 29.1762 105.494 28.4788 105.139 27.8972C104.724 27.1933 104.131 26.8423 103.362 26.8423C102.567 26.8423 101.963 27.1942 101.548 27.8972C101.193 28.4797 101.017 29.1881 101.017 30.0261C101.017 30.8393 101.193 31.5368 101.548 32.1175C101.976 32.8213 102.574 33.1723 103.345 33.1723C104.1 33.1723 104.693 32.814 105.121 32.0991C105.486 31.5064 105.669 30.8017 105.669 29.9894Z" fill="black"/>
<path d="M114.152 27.3128C113.957 27.2769 113.748 27.2585 113.529 27.2585C112.833 27.2585 112.295 27.5186 111.916 28.0396C111.587 28.499 111.422 29.0797 111.422 29.7808V34.4073H109.444L109.463 28.3667C109.463 27.3504 109.438 26.4251 109.388 25.5908H111.112L111.184 27.2778H111.239C111.447 26.698 111.777 26.2313 112.228 25.8812C112.669 25.566 113.145 25.4089 113.658 25.4089C113.841 25.4089 114.006 25.4217 114.152 25.4447V27.3128Z" fill="black"/>
<path d="M123 29.5815C123 29.9325 122.977 30.2284 122.928 30.47H116.992C117.016 31.3411 117.302 32.0073 117.854 32.4667C118.354 32.8774 119.001 33.0832 119.795 33.0832C120.674 33.0832 121.475 32.9445 122.196 32.6661L122.506 34.026C121.664 34.3899 120.669 34.5709 119.521 34.5709C118.14 34.5709 117.056 34.1684 116.268 33.3644C115.481 32.5604 115.086 31.4808 115.086 30.1264C115.086 28.7968 115.453 27.6895 116.187 26.8065C116.955 25.8638 117.994 25.3924 119.3 25.3924C120.584 25.3924 121.555 25.8638 122.215 26.8065C122.737 27.5554 123 28.4816 123 29.5815ZM121.113 29.0733C121.126 28.4926 120.997 27.9909 120.729 27.5673C120.387 27.0225 119.861 26.7505 119.153 26.7505C118.506 26.7505 117.98 27.016 117.578 27.549C117.249 27.9726 117.053 28.4807 116.992 29.0724H121.113V29.0733Z" fill="black"/>
<path d="M55.0996 13.9552C55.0996 15.3034 54.699 16.3183 53.8988 16.9998C53.1576 17.6287 52.1043 17.9437 50.74 17.9437C50.0635 17.9437 49.4847 17.9139 49 17.8543V10.4879C49.6322 10.3848 50.3132 10.3321 51.0487 10.3321C52.3483 10.3321 53.3278 10.6173 53.9884 11.1877C54.7285 11.8326 55.0996 12.7547 55.0996 13.9552ZM53.8454 13.9884C53.8454 13.1144 53.6161 12.4443 53.1576 11.977C52.699 11.5108 52.0294 11.2771 51.1475 11.2771C50.7729 11.2771 50.454 11.3023 50.1895 11.355V16.9551C50.3359 16.9781 50.6038 16.9884 50.9931 16.9884C51.9034 16.9884 52.606 16.7329 53.1008 16.222C53.5957 15.7112 53.8454 14.9666 53.8454 13.9884Z" fill="black"/>
<path d="M61.7498 15.1329C61.7498 15.9634 61.5149 16.6438 61.045 17.1776C60.5524 17.7262 59.8997 18 59.0848 18C58.2993 18 57.6739 17.7377 57.2074 17.2108C56.7421 16.685 56.5094 16.0218 56.5094 15.2223C56.5094 14.3861 56.7489 13.6999 57.2301 13.1673C57.7114 12.6347 58.3584 12.3678 59.1733 12.3678C59.9587 12.3678 60.5898 12.6301 61.0677 13.1558C61.5217 13.6667 61.7498 14.3265 61.7498 15.1329ZM60.516 15.1719C60.516 14.6736 60.4093 14.2463 60.1971 13.8901C59.9474 13.4594 59.5921 13.244 59.1302 13.244C58.6523 13.244 58.2891 13.4594 58.0394 13.8901C57.826 14.2463 57.7205 14.6805 57.7205 15.1936C57.7205 15.6919 57.8272 16.1192 58.0394 16.4754C58.2971 16.9061 58.6557 17.1214 59.1188 17.1214C59.5728 17.1214 59.9292 16.9026 60.1857 16.4639C60.4059 16.1008 60.516 15.6701 60.516 15.1719Z" fill="black"/>
<path d="M70.6669 12.4777L68.9927 17.8774H67.9031L67.2096 15.5326C67.0337 14.9473 66.8906 14.3654 66.7794 13.7881H66.7578C66.6546 14.3814 66.5115 14.9622 66.3277 15.5326L65.591 17.8774H64.4889L62.9147 12.4777H64.1371L64.742 15.0446C64.8885 15.6517 65.0088 16.2302 65.1053 16.7777H65.1268C65.2153 16.3264 65.3618 15.7514 65.5683 15.0561L66.3277 12.4788H67.297L68.0245 15.0011C68.2005 15.6162 68.3435 16.2084 68.4536 16.7789H68.4865C68.5671 16.2233 68.6885 15.6311 68.8497 15.0011L69.4989 12.4788H70.6669V12.4777Z" fill="black"/>
<path d="M76.833 17.8774H75.6435V14.7847C75.6435 13.8316 75.2849 13.3551 74.5652 13.3551C74.2123 13.3551 73.9274 13.4857 73.706 13.748C73.487 14.0103 73.3757 14.3196 73.3757 14.6735V17.8763H72.1862V14.0206C72.1862 13.5464 72.1715 13.0321 72.1431 12.4754H73.1885L73.2441 13.3196H73.277C73.4155 13.0573 73.6221 12.8408 73.8933 12.6678C74.2157 12.4662 74.5766 12.3643 74.9716 12.3643C75.471 12.3643 75.8864 12.527 76.2167 12.8534C76.6276 13.2532 76.833 13.85 76.833 14.6426V17.8774Z" fill="black"/>
<path d="M80.113 17.8773H78.9247V10H80.113V17.8773Z" fill="black"/>
<path d="M87.1161 15.1329C87.1161 15.9634 86.8812 16.6438 86.4113 17.1776C85.9187 17.7262 85.2649 18 84.4511 18C83.6645 18 83.0391 17.7377 82.5738 17.2108C82.1084 16.685 81.8757 16.0218 81.8757 15.2223C81.8757 14.3861 82.1152 13.6999 82.5965 13.1673C83.0777 12.6347 83.7247 12.3678 84.5385 12.3678C85.3251 12.3678 85.955 12.6301 86.434 13.1558C86.888 13.6667 87.1161 14.3265 87.1161 15.1329ZM85.8812 15.1719C85.8812 14.6736 85.7745 14.2463 85.5623 13.8901C85.3137 13.4594 84.9573 13.244 84.4965 13.244C84.0175 13.244 83.6543 13.4594 83.4058 13.8901C83.1924 14.2463 83.0868 14.6805 83.0868 15.1936C83.0868 15.6919 83.1935 16.1192 83.4058 16.4754C83.6634 16.9061 84.0221 17.1214 84.4852 17.1214C84.9392 17.1214 85.2944 16.9026 85.5509 16.4639C85.7723 16.1008 85.8812 15.6701 85.8812 15.1719Z" fill="black"/>
<path d="M92.873 17.8774H91.805L91.7165 17.2555H91.6835C91.3181 17.7514 90.7971 18 90.1206 18C89.6155 18 89.2069 17.8362 88.8993 17.5109C88.6201 17.2154 88.4805 16.8477 88.4805 16.4112C88.4805 15.7515 88.7529 15.2486 89.3011 14.9004C89.8482 14.5522 90.6178 14.3815 91.6086 14.3895V14.2887C91.6086 13.5774 91.2386 13.2223 90.4974 13.2223C89.9697 13.2223 89.5043 13.3563 89.1025 13.622L88.8607 12.834C89.3579 12.5235 89.9719 12.3678 90.6961 12.3678C92.0944 12.3678 92.7959 13.1123 92.7959 14.6014V16.5899C92.7959 17.1294 92.822 17.559 92.873 17.8774ZM91.6381 16.0218V15.189C90.3261 15.1661 89.67 15.5292 89.67 16.2772C89.67 16.559 89.7449 16.7698 89.8982 16.9107C90.0514 17.0516 90.2466 17.1214 90.4793 17.1214C90.7403 17.1214 90.9844 17.0378 91.2068 16.8717C91.4304 16.7045 91.5678 16.4926 91.6188 16.2326C91.6313 16.1741 91.6381 16.1031 91.6381 16.0218Z" fill="black"/>
<path d="M99.632 17.8773H98.5764L98.5208 17.0102H98.4879C98.1508 17.67 97.5764 17.9999 96.7694 17.9999C96.1248 17.9999 95.5879 17.7445 95.1623 17.2336C94.7366 16.7227 94.5244 16.0595 94.5244 15.2451C94.5244 14.3711 94.7548 13.6632 95.2179 13.1225C95.6662 12.6185 96.2156 12.3665 96.8693 12.3665C97.5878 12.3665 98.0906 12.6105 98.3766 13.0996H98.3993V10H99.59V16.4226C99.59 16.9484 99.6036 17.4329 99.632 17.8773ZM98.3993 15.6002V14.6998C98.3993 14.544 98.388 14.418 98.3664 14.3218C98.2994 14.0332 98.1553 13.7903 97.9362 13.5945C97.7149 13.3986 97.4482 13.3001 97.1406 13.3001C96.6968 13.3001 96.3495 13.4776 96.0941 13.8339C95.841 14.1901 95.7127 14.6448 95.7127 15.2004C95.7127 15.7342 95.8342 16.1672 96.0782 16.5005C96.3359 16.8556 96.6832 17.0331 97.1179 17.0331C97.5083 17.0331 97.8205 16.8854 98.0577 16.5887C98.287 16.3149 98.3993 15.985 98.3993 15.6002Z" fill="black"/>
<path d="M109.806 15.1329C109.806 15.9634 109.571 16.6438 109.101 17.1776C108.608 17.7262 107.957 18 107.141 18C106.356 18 105.731 17.7377 105.263 17.2108C104.798 16.685 104.565 16.0218 104.565 15.2223C104.565 14.3861 104.805 13.6999 105.286 13.1673C105.767 12.6347 106.414 12.3678 107.23 12.3678C108.015 12.3678 108.647 12.6301 109.124 13.1558C109.578 13.6667 109.806 14.3265 109.806 15.1329ZM108.573 15.1719C108.573 14.6736 108.466 14.2463 108.254 13.8901C108.003 13.4594 107.649 13.244 107.186 13.244C106.709 13.244 106.346 13.4594 106.095 13.8901C105.882 14.2463 105.776 14.6805 105.776 15.1936C105.776 15.6919 105.883 16.1192 106.095 16.4754C106.353 16.9061 106.712 17.1214 107.175 17.1214C107.629 17.1214 107.986 16.9026 108.243 16.4639C108.462 16.1008 108.573 15.6701 108.573 15.1719Z" fill="black"/>
<path d="M116.201 17.8774H115.013V14.7847C115.013 13.8316 114.654 13.3551 113.933 13.3551C113.58 13.3551 113.296 13.4857 113.075 13.748C112.855 14.0103 112.745 14.3196 112.745 14.6735V17.8763H111.554V14.0206C111.554 13.5464 111.541 13.0321 111.512 12.4754H112.557L112.612 13.3196H112.645C112.785 13.0573 112.991 12.8408 113.261 12.6678C113.585 12.4662 113.945 12.3643 114.341 12.3643C114.839 12.3643 115.255 12.527 115.585 12.8534C115.997 13.2532 116.201 13.85 116.201 14.6426V17.8774Z" fill="black"/>
<path d="M124.206 13.3769H122.896V16C122.896 16.6667 123.129 17 123.59 17C123.803 17 123.98 16.9817 124.12 16.9439L124.151 17.8545C123.916 17.9439 123.607 17.9885 123.227 17.9885C122.757 17.9885 122.391 17.8442 122.127 17.5555C121.861 17.2669 121.73 16.7812 121.73 16.0997V13.3769H120.948V12.4777H121.73V11.488L122.895 11.1329V12.4766H124.205V13.3769H124.206Z" fill="black"/>
<path d="M130.504 17.8773H129.313V14.8075C129.313 13.8396 128.954 13.3551 128.236 13.3551C127.684 13.3551 127.307 13.6357 127.101 14.197C127.066 14.315 127.045 14.4593 127.045 14.6288V17.8762H125.857V10H127.045V13.2543H127.068C127.443 12.6621 127.979 12.3665 128.675 12.3665C129.168 12.3665 129.575 12.5292 129.899 12.8556C130.302 13.2623 130.504 13.8671 130.504 14.6666V17.8773Z" fill="black"/>
<path d="M137 14.9221C137 15.1374 136.984 15.3184 136.956 15.4661H133.388C133.404 15.9999 133.575 16.4066 133.905 16.6884C134.207 16.9404 134.596 17.0664 135.073 17.0664C135.601 17.0664 136.082 16.9816 136.515 16.8109L136.701 17.6448C136.194 17.867 135.597 17.9781 134.906 17.9781C134.077 17.9781 133.425 17.7319 132.953 17.2393C132.478 16.7468 132.243 16.0858 132.243 15.2565C132.243 14.4421 132.462 13.764 132.904 13.2233C133.365 12.646 133.988 12.3574 134.774 12.3574C135.544 12.3574 136.128 12.646 136.523 13.2233C136.842 13.6815 137 14.2485 137 14.9221ZM135.865 14.6116C135.874 14.2554 135.796 13.9484 135.635 13.6895C135.428 13.3562 135.114 13.189 134.688 13.189C134.3 13.189 133.983 13.3516 133.741 13.6781C133.544 13.9381 133.427 14.2485 133.388 14.6116H135.865Z" fill="black"/>
</svg>
