<svg width="162" height="48" viewBox="0 0 162 48" fill="none" xmlns="http://www.w3.org/2000/svg">
<path d="M0 6.4C0 2.86538 2.86679 0 6.40316 0H155.597C159.133 0 162 2.86538 162 6.4V41.6C162 45.1346 159.133 48 155.597 48H6.40316C2.86679 48 0 45.1346 0 41.6V6.4Z" fill="white"/>
<path fill-rule="evenodd" clip-rule="evenodd" d="M0 41.6V6.4C0 2.86538 2.86679 0 6.40316 0H155.597C159.133 0 162 2.86538 162 6.4V41.6C162 45.1346 159.133 48 155.597 48H6.40316C2.86679 48 0 45.1346 0 41.6ZM0.960474 41.6V6.4C0.960474 3.39557 3.39725 0.96 6.40316 0.96H155.597C158.603 0.96 161.04 3.39557 161.04 6.4V41.6C161.04 44.6044 158.603 47.04 155.597 47.04H6.40316C3.39725 47.04 0.960474 44.6044 0.960474 41.6Z" fill="black" fill-opacity="0.1"/>
<path d="M82.2335 25.8148C79.3581 25.8148 76.9823 28.0264 76.9823 31.0587C76.9823 34.0662 79.3332 36.3026 82.2338 36.3026C85.1341 36.3026 87.4847 34.091 87.4847 31.0587C87.4847 28.0264 85.1341 25.8148 82.2335 25.8148ZM82.2335 34.2159C80.6578 34.2159 79.2833 32.8982 79.2833 31.0353C79.2833 29.1464 80.6589 27.8547 82.2335 27.8547C83.8081 27.8547 85.1837 29.1464 85.1837 31.0353C85.1837 32.8982 83.8081 34.2159 82.2335 34.2159ZM70.8059 25.8148C67.9053 25.8148 65.5545 28.0264 65.5545 31.0587C65.5545 34.0662 67.9053 36.3026 70.8059 36.3026C73.7063 36.3026 76.0571 34.091 76.0571 31.0587C76.0571 28.0264 73.7063 25.8148 70.8057 25.8148H70.8059ZM70.8059 34.2159C69.2299 34.2159 67.8557 32.8982 67.8557 31.0353C67.8557 29.1464 69.2313 27.8547 70.8059 27.8547C72.3817 27.8547 73.7561 29.1464 73.7561 31.0353C73.7561 32.8982 72.4052 34.2159 70.8059 34.2159ZM57.2277 27.4304V29.642H62.5284C62.3778 30.8845 61.954 31.804 61.3284 32.4258C60.5535 33.196 59.3532 34.0415 57.2277 34.0415C53.9514 34.0415 51.4267 31.4073 51.4267 28.1513C51.4267 24.8953 53.9528 22.2113 57.2277 22.2113C59.0024 22.2113 60.2786 22.9074 61.2287 23.8024L62.8033 22.2361C61.4776 20.969 59.7028 20 57.2277 20C52.751 20 49 23.6528 49 28.1017C49 32.551 52.751 36.2038 57.2277 36.2038C59.653 36.2038 61.454 35.4089 62.9041 33.9168C64.3793 32.4506 64.8294 30.3873 64.8294 28.7225C64.8294 28.2008 64.7799 27.7284 64.704 27.3305L57.2277 27.4304ZM112.791 29.1451C112.365 27.9768 111.016 25.8148 108.314 25.8148C105.613 25.8148 103.388 27.9276 103.388 31.0587C103.388 33.9908 105.613 36.3026 108.564 36.3026C110.965 36.3026 112.34 34.8363 112.915 33.9908L111.14 32.7981C110.539 33.6684 109.74 34.2393 108.564 34.2393C107.389 34.2393 106.564 33.7176 106.038 32.6484L113.015 29.741L112.791 29.1451ZM105.689 30.9104C105.639 28.8966 107.265 27.8533 108.414 27.8533C109.339 27.8533 110.089 28.3007 110.364 28.972L105.689 30.9104ZM100.012 35.955H102.313V20.5957H100.012V35.955ZM96.2622 26.983H96.1874C95.6626 26.3612 94.6876 25.8148 93.4363 25.8148C90.8106 25.8148 88.4351 28.1265 88.4351 31.0587C88.4351 33.9908 90.8355 36.2781 93.4363 36.2781C94.6862 36.2781 95.6615 35.7314 96.1874 35.0848H96.2622V35.8304C96.2622 37.8441 95.1861 38.912 93.4612 38.912C92.0607 38.912 91.1851 37.8934 90.8355 37.0479L88.8356 37.8934C89.4101 39.2853 90.9362 41 93.4612 41C96.1614 41 98.4375 39.4091 98.4375 35.5572V26.1375H96.2622V26.983ZM93.6364 34.2159C92.0607 34.2159 90.7361 32.8982 90.7361 31.06C90.7361 29.2218 92.0618 27.8791 93.6364 27.8791C95.1875 27.8791 96.4374 29.2218 96.4374 31.06C96.4363 32.8735 95.1861 34.2159 93.6364 34.2159ZM123.518 20.596H118.017V35.955H120.318V30.1389H123.518C126.069 30.1389 128.569 28.2993 128.569 25.3674C128.569 22.4353 126.069 20.5957 123.518 20.5957V20.596ZM123.593 28.003H120.341V22.733H123.593C125.293 22.733 126.293 24.1497 126.293 25.3671C126.269 26.5602 125.294 28.003 123.593 28.003ZM137.747 25.79C136.096 25.79 134.371 26.5109 133.671 28.1513L135.697 28.9968C136.147 28.1513 136.947 27.8781 137.798 27.8781C138.998 27.8781 140.198 28.5987 140.223 29.8657V30.0153C139.798 29.7669 138.923 29.4183 137.823 29.4183C135.623 29.4183 133.396 30.6361 133.396 32.8735C133.396 34.9365 135.197 36.2533 137.197 36.2533C138.748 36.2533 139.598 35.5572 140.122 34.7376H140.197V35.9306H142.422V30.0398C142.397 27.3314 140.372 25.7898 137.747 25.7898V25.79ZM137.472 34.1911C136.722 34.1911 135.671 33.8178 135.671 32.8993C135.671 31.7063 136.971 31.259 138.096 31.259C139.096 31.259 139.572 31.4826 140.197 31.7806C140.022 33.1973 138.797 34.1911 137.472 34.1911ZM150.45 26.1389L147.824 32.7744H147.749L145.024 26.1386H142.549L146.649 35.4334L144.324 40.628H146.724L153 26.1386H150.449L150.45 26.1389ZM129.845 35.955H132.146V20.5957H129.845V35.955Z" fill="black"/>
<path d="M52.8462 16C52.1487 16 51.506 15.8253 50.918 15.4759C50.3299 15.1266 49.8615 14.6488 49.5128 14.0428C49.1709 13.4296 49 12.7487 49 12C49 11.2513 49.1709 10.574 49.5128 9.96791C49.8615 9.35472 50.3299 8.87344 50.918 8.52406C51.506 8.17469 52.1487 8 52.8462 8C53.4 8 53.9163 8.10339 54.3949 8.31016C54.8736 8.51693 55.2736 8.8057 55.5949 9.17647L54.7949 10.0107C54.5556 9.73262 54.2684 9.51872 53.9334 9.36898C53.6052 9.21925 53.2394 9.14439 52.8359 9.14439C52.3641 9.14439 51.9231 9.26203 51.5128 9.49733C51.1026 9.73262 50.7744 10.0677 50.5282 10.5027C50.2821 10.9376 50.159 11.4367 50.159 12C50.159 12.5633 50.2821 13.0624 50.5282 13.4973C50.7744 13.9323 51.1026 14.2674 51.5128 14.5027C51.9231 14.738 52.3676 14.8556 52.8462 14.8556C53.2838 14.8556 53.6496 14.7879 53.9436 14.6524C54.2377 14.5169 54.5009 14.3351 54.7334 14.107C54.8838 13.9501 55.0103 13.754 55.1129 13.5187C55.2223 13.2834 55.2941 13.0267 55.3283 12.7487H52.8359V11.6791H56.4154C56.4496 11.8788 56.4667 12.0856 56.4667 12.2995C56.4667 12.7843 56.3949 13.2513 56.2513 13.7005C56.1078 14.1426 55.8787 14.5276 55.5642 14.8556C54.8736 15.6185 53.9676 16 52.8462 16Z" fill="black"/>
<path d="M57.5364 8.17112H61.998V9.31551H58.6851V11.4332H61.6697V12.5668H58.6851V14.6845H61.998V15.8289H57.5364V8.17112Z" fill="black"/>
<path d="M64.6566 9.31551H62.6053V8.17112H67.8567V9.31551H65.8054V15.8289H64.6566V9.31551Z" fill="black"/>
<path d="M70.8598 8.17112H72.0085V15.8289H70.8598V8.17112Z" fill="black"/>
<path d="M74.9151 9.31551H72.8638V8.17112H78.1152V9.31551H76.0639V15.8289H74.9151V9.31551Z" fill="black"/>
<path d="M84.3539 16C83.6428 16 82.9966 15.8253 82.4154 15.4759C81.8342 15.1194 81.3761 14.6346 81.0411 14.0214C80.7129 13.4082 80.5488 12.7344 80.5488 12C80.5488 11.2656 80.7129 10.5954 81.0411 9.98931C81.3761 9.37611 81.8342 8.89127 82.4154 8.53476C82.9966 8.17825 83.6428 8 84.3539 8C85.065 8 85.7078 8.17825 86.2821 8.53476C86.8633 8.89127 87.3215 9.37611 87.6565 9.98931C87.9916 10.5954 88.1591 11.2656 88.1591 12C88.1591 12.7344 87.9916 13.4082 87.6565 14.0214C87.3283 14.6346 86.8736 15.1194 86.2924 15.4759C85.7112 15.8253 85.065 16 84.3539 16ZM84.3539 14.8556C84.8394 14.8556 85.2838 14.7344 85.6873 14.492C86.0907 14.2496 86.4086 13.9144 86.6411 13.4866C86.8736 13.0517 86.9898 12.5561 86.9898 12C86.9898 11.4439 86.8736 10.9519 86.6411 10.5241C86.4086 10.0891 86.0907 9.75045 85.6873 9.50802C85.2838 9.2656 84.8394 9.14439 84.3539 9.14439C83.8684 9.14439 83.424 9.2656 83.0206 9.50802C82.6171 9.75045 82.2958 10.0891 82.0565 10.5241C81.824 10.9519 81.7077 11.4439 81.7077 12C81.7077 12.5561 81.824 13.0517 82.0565 13.4866C82.2958 13.9144 82.6171 14.2496 83.0206 14.492C83.424 14.7344 83.8684 14.8556 84.3539 14.8556Z" fill="black"/>
<path d="M89.2153 8.17112H90.5794L93.8615 13.7433H93.9231L93.8615 12.2674V8.17112H95V15.8289H93.8L90.3538 9.96791H90.2923L90.3538 11.4439V15.8289H89.2153V8.17112Z" fill="black"/>
<path d="M34.0505 29C37.895 26.9152 40.8098 25.3268 41.061 25.2034C41.8644 24.7812 42.6945 23.6642 41.061 22.7966C40.5336 22.5238 37.6939 20.9846 34.0505 19L29 24.037L34.0502 29H34.0505Z" fill="#FFD900"/>
<path d="M28.981 24L13 39.9878C13.3748 40.0372 13.7984 39.9384 14.2979 39.6659C15.3462 39.0965 26.4582 33.0726 34 28.9584L28.981 24Z" fill="#F43249"/>
<path d="M28.9873 24L34 18.9748C34 18.9748 15.4437 8.87397 14.3207 8.27796C13.8982 8.02736 13.4241 7.95326 13 8.02736L28.9873 23.9997V24Z" fill="#00EE76"/>
<path d="M29 24.4491L13.1844 8C12.5425 8.15401 12 8.74284 12 9.94659V39.0273C12 40.1298 12.4198 40.9237 13.2087 41L28.9997 24.4488L29 24.4491Z" fill="#00D3FF"/>
</svg>
