<svg width="130" height="28" viewBox="0 0 130 28" fill="none" xmlns="http://www.w3.org/2000/svg">
<path d="M12.3253 11.1H16.8216C17.3963 7.68551 15.1313 5.45426 10.9392 5.45426C6.81477 5.45426 3.56932 7.6517 3.02841 10.9648C2.58892 13.6693 4.21165 15.1568 7.15284 15.833L8.80938 16.2048C10.6688 16.6105 11.2773 17.1176 11.142 17.8952C11.0068 18.7403 10.1278 19.3489 8.60653 19.3489C6.81477 19.3489 5.86818 18.5037 6.07102 16.9148H1.60852C0.89858 21.242 3.53551 23.2028 8.03182 23.2028C12.4267 23.2028 15.3679 21.3097 15.9426 17.8952C16.3821 15.2582 15.0974 13.3989 11.4125 12.5875L10.0602 12.2832C8.47131 11.9452 7.79517 11.4381 7.99801 10.6267C8.13324 9.84915 8.84318 9.30824 10.2969 9.30824C11.8182 9.30824 12.4267 9.98437 12.3253 11.1ZM15.1892 27.8682H19.8546L21.004 20.8702H21.1054C21.4097 22.1886 22.4915 23.169 24.3171 23.169C27.0892 23.169 29.7938 21.0054 30.5375 16.5091C31.3151 11.8099 29.1514 9.84915 26.5821 9.84915C24.6551 9.84915 23.2353 10.9648 22.5253 12.2832H22.4239L22.7958 10.0182H18.1642L15.1892 27.8682ZM21.6463 16.5091C21.9506 14.5821 22.931 13.4327 24.2157 13.4327C25.5003 13.4327 26.0412 14.5821 25.737 16.5091C25.3989 18.4361 24.4861 19.5855 23.2014 19.5855C21.9168 19.5855 21.3421 18.4023 21.6463 16.5091ZM36.6448 23.2366C40.2621 23.2366 42.8315 21.5125 43.7442 18.808H39.4846C39.0789 19.5517 38.2337 19.9574 37.2871 19.9574C35.9011 19.9574 35.2587 19.0446 35.4616 17.7937L35.5038 17.5909H43.9471L44.1161 16.5091C44.7923 12.3847 42.6962 9.84915 38.7746 9.84915C34.7516 9.84915 31.7428 12.5199 31.0667 16.5429C30.3567 20.7349 32.4866 23.2366 36.6448 23.2366ZM35.9856 15.0216C36.2476 13.8806 37.2449 13.1284 38.369 13.1284C39.5184 13.1284 40.2283 13.906 40.0593 15.0216H35.9856ZM53.8914 10.0182H51.6517L52.1673 6.90795H47.502L46.9864 10.0182H45.3383L44.7636 13.3989H46.4286L45.4566 19.2643C44.9495 21.9689 46.4032 23.3465 49.6825 23.1859C50.7305 23.1352 51.5419 22.9155 52.0152 22.7803L51.8799 19.501C51.6771 19.5348 51.2038 19.6362 50.9333 19.6362C50.3248 19.6362 50.0966 19.3658 50.1896 18.8249L51.0939 13.3989H53.3167L53.8914 10.0182ZM52.6796 23H57.3449L58.4605 16.2386C58.731 14.7511 59.9142 13.7707 61.2665 13.7707C61.7736 13.7707 62.5173 13.8384 62.9568 14.0074L63.633 10.0182C63.2611 9.91676 62.8892 9.84915 62.4835 9.84915C61.0975 9.84915 59.8804 10.6605 59.1028 12.4861H58.9676L59.3733 10.0182H54.8432L52.6796 23ZM67.5238 23.2366C71.7496 23.2366 74.6993 20.5321 75.367 16.5429C76.0178 12.5537 73.964 9.84915 69.755 9.84915C65.5123 9.84915 62.5626 12.5537 61.9119 16.5429C61.2442 20.5321 63.2979 23.2366 67.5238 23.2366ZM68.0985 19.7884C66.873 19.7884 66.3406 18.546 66.6786 16.5091C67.0082 14.4722 67.9633 13.2298 69.1803 13.2298C70.3974 13.2298 70.9298 14.4722 70.6002 16.5091C70.2621 18.546 69.3071 19.7884 68.0985 19.7884ZM82.7653 5.69091H78.0999L75.2263 23H79.8917L82.7653 5.69091Z" fill="#CA2128"/>
<g filter="url(#filter0_dd_175:511)">
<path d="M88.0296 6.05491C88.1483 5.38669 88.7293 4.8999 89.408 4.8999H126.029C126.9 4.8999 127.56 5.68712 127.408 6.5449L124.67 21.9449C124.552 22.6131 123.971 23.0999 123.292 23.0999H86.6708C85.7996 23.0999 85.1399 22.3127 85.2924 21.4549L88.0296 6.05491Z" fill="#CA2128"/>
</g>
<path d="M92.9037 17.5999H94.6258L95.1827 14.2351H98.4957L98.7344 12.8152H95.4213L95.7395 10.8743H99.4105L99.6491 9.4544H94.256L92.9037 17.5999ZM105.391 9.4544L104.536 14.597C104.389 15.5277 103.621 16.1999 102.619 16.1999C101.624 16.1999 101.079 15.5277 101.227 14.597L102.082 9.4544H100.36L99.4845 14.7442C99.1902 16.526 100.336 17.7152 102.364 17.7152C104.389 17.7152 105.944 16.526 106.238 14.7442L107.113 9.4544H105.391ZM106.73 17.5999H112.234L112.473 16.18H108.69L109.009 14.2351H112.493L112.731 12.8152H109.247L109.565 10.8743H113.332L113.57 9.4544H108.082L106.73 17.5999ZM113.139 17.5999H118.354L118.592 16.18H115.1L116.214 9.4544H114.492L113.139 17.5999Z" fill="white"/>
<defs>
<filter id="filter0_dd_175:511" x="83.1704" y="3.4999" width="46.3592" height="22.4" filterUnits="userSpaceOnUse" color-interpolation-filters="sRGB">
<feFlood flood-opacity="0" result="BackgroundImageFix"/>
<feColorMatrix in="SourceAlpha" type="matrix" values="0 0 0 0 0 0 0 0 0 0 0 0 0 0 0 0 0 0 127 0" result="hardAlpha"/>
<feOffset dy="0.7"/>
<feGaussianBlur stdDeviation="0.7"/>
<feColorMatrix type="matrix" values="0 0 0 0 0 0 0 0 0 0 0 0 0 0 0 0 0 0 0.06 0"/>
<feBlend mode="normal" in2="BackgroundImageFix" result="effect1_dropShadow_175:511"/>
<feColorMatrix in="SourceAlpha" type="matrix" values="0 0 0 0 0 0 0 0 0 0 0 0 0 0 0 0 0 0 127 0" result="hardAlpha"/>
<feOffset dy="0.7"/>
<feGaussianBlur stdDeviation="1.05"/>
<feColorMatrix type="matrix" values="0 0 0 0 0 0 0 0 0 0 0 0 0 0 0 0 0 0 0.1 0"/>
<feBlend mode="normal" in2="effect1_dropShadow_175:511" result="effect2_dropShadow_175:511"/>
<feBlend mode="normal" in="SourceGraphic" in2="effect2_dropShadow_175:511" result="shape"/>
</filter>
</defs>
</svg>
